<svg xmlns="http://www.w3.org/2000/svg" xmlns:xlink="http://www.w3.org/1999/xlink" width="59.223" height="59" viewBox="0 0 59.223 59">
  <defs>
    <clipPath id="clip-path">
      <rect id="Rectangle_1489" data-name="Rectangle 1489" width="59.223" height="59" fill="#608d33"/>
    </clipPath>
  </defs>
  <g id="Groupe_416" data-name="Groupe 416" transform="translate(0 0)">
    <g id="Groupe_415" data-name="Groupe 415" transform="translate(0 0)" clip-path="url(#clip-path)">
      <path id="Tracé_717" data-name="Tracé 717" d="M53.9,17.53c.431.046.833.066,1.225.136A3.608,3.608,0,0,1,58.1,21.084q.052,4.021,0,8.045a3.221,3.221,0,0,1-2.934,3.09c-.26.025-.524.027-.785.027-9.859,0-19.718-.036-29.576.026a3.931,3.931,0,0,1-4.2-4.21c.082-2.094.075-4.2,0-6.291a3.831,3.831,0,0,1,4.019-4.2,1.064,1.064,0,0,0,.216-.041V14.7a11.3,11.3,0,0,1-1.15-.093,3.677,3.677,0,0,1-3.06-3.614q-.049-3.659,0-7.319A3.648,3.648,0,0,1,24.347.008q15.03-.015,30.061,0a3.643,3.643,0,0,1,3.7,3.73c.016,2.359.011,4.718,0,7.078a3.672,3.672,0,0,1-3.779,3.845c-.136,0-.271.013-.435.02Zm-14.359,12.9q7.408,0,14.817,0c1.446,0,1.939-.488,1.939-1.911q0-3.477,0-6.955a1.932,1.932,0,0,0-2.156-2.172q-14.755-.006-29.513,0a1.959,1.959,0,0,0-2.186,2.215q-.005,3.206,0,6.411c0,1.751.657,2.412,2.4,2.412h14.7M39.348,1.822q-7.406,0-14.81,0a1.9,1.9,0,0,0-2.095,2.043q-.018,3.475,0,6.953A1.9,1.9,0,0,0,24.5,12.84q14.871,0,29.741,0a1.887,1.887,0,0,0,2.054-2.074q.006-3.386,0-6.771a1.921,1.921,0,0,0-2.2-2.172H39.348M52,14.7H26.743v2.837H52Z" transform="translate(-3.206 0)" fill="#608d33"/>
      <path id="Tracé_718" data-name="Tracé 718" d="M44.535,49.749l5.778-2.661c1.133-.523,2.262-1.054,3.4-1.567a3.812,3.812,0,0,1,5.021,1.554,3.772,3.772,0,0,1-1.291,5.039A121.716,121.716,0,0,1,41.38,61.942c-1.746.861-3.578,1.55-5.387,2.281a11.247,11.247,0,0,1-8.364-.091A84.45,84.45,0,0,1,15.7,58.453c-.278-.155-.557-.306-.876-.48a3.3,3.3,0,0,1-2.386,2.144,4.1,4.1,0,0,1-.838.083q-4.082.009-8.163,0A3.209,3.209,0,0,1,.008,56.813q-.018-7.469,0-14.938a3.2,3.2,0,0,1,3.37-3.394q4.111-.023,8.223,0a3.118,3.118,0,0,1,3.232,2.46c.108.4.323.376.61.376,2.419,0,4.837.009,7.256.008a17.162,17.162,0,0,1,10.85,4.12,2.21,2.21,0,0,0,1.527.525c1.672-.035,3.345-.013,5.019-.012,2.514,0,3.846,1.082,4.354,3.531.016.075.047.148.084.262M15.064,43.034l-.048.177c-.01.016-.03.031-.03.047q-.013,6.2-.008,12.4a.643.643,0,0,0,.3.449A78.541,78.541,0,0,0,28.342,62.45a8.209,8.209,0,0,0,4.839.643A29.835,29.835,0,0,0,37.321,61.8c6.924-2.923,13.146-7.059,19.284-11.329a1.8,1.8,0,0,0,.757-1.746,1.975,1.975,0,0,0-2.94-1.531Q49.209,49.587,44.007,52a1.5,1.5,0,0,0-.495.33,4.085,4.085,0,0,1-3.287,1.359c-3.748-.025-7.5-.009-11.246-.009-.464,0-.928.013-1.391-.007a.861.861,0,0,1-.911-.849.891.891,0,0,1,.876-.957c.18-.018.362-.008.544-.008q6.167,0,12.335,0a2.037,2.037,0,1,0,.017-4.062q-2.992-.033-5.986,0a2.3,2.3,0,0,1-1.638-.586,14.509,14.509,0,0,0-7.871-3.833c-3.276-.326-6.591-.252-9.89-.351m-1.913,6.342q0-3.658,0-7.317c0-1.24-.484-1.745-1.7-1.75q-3.961-.011-7.921,0c-1.192,0-1.7.509-1.7,1.693q-.006,7.347,0,14.695c0,1.183.518,1.692,1.7,1.693q3.9.005,7.8,0c1.336,0,1.822-.484,1.823-1.82q0-3.6,0-7.2" transform="translate(0 -5.987)" fill="#608d33"/>
      <path id="Tracé_719" data-name="Tracé 719" d="M31.882,28.914a3.265,3.265,0,0,1-3.248,3.278,3.27,3.27,0,1,1,0-6.539,3.232,3.232,0,0,1,3.251,3.261m-3.242-1.447A1.466,1.466,0,0,0,27.157,28.9a1.492,1.492,0,0,0,1.466,1.463,1.459,1.459,0,0,0,1.436-1.418,1.426,1.426,0,0,0-1.42-1.479" transform="translate(-3.943 -3.992)" fill="#608d33"/>
      <path id="Tracé_720" data-name="Tracé 720" d="M59.31,28.882c0,.785.01,1.57,0,2.355-.012.713-.357,1.105-.927,1.092-.543-.013-.885-.4-.89-1.072q-.018-2.384,0-4.769c.005-.662.364-1.064.9-1.071s.9.4.917,1.05c.017.8,0,1.61,0,2.415" transform="translate(-8.945 -3.955)" fill="#608d33"/>
      <path id="Tracé_721" data-name="Tracé 721" d="M47.815,28.891c0-.806-.007-1.611,0-2.417.008-.654.362-1.06.9-1.06s.906.411.909,1.061q.013,2.417,0,4.834a.912.912,0,1,1-1.811,0c-.01-.806,0-1.611,0-2.417" transform="translate(-7.441 -3.955)" fill="#608d33"/>
      <path id="Tracé_722" data-name="Tracé 722" d="M44.784,28.872c0,.806.007,1.611,0,2.417-.008.662-.355,1.049-.908,1.044s-.9-.406-.905-1.063q-.014-2.386,0-4.773c0-.656.358-1.066.893-1.081.56-.014.915.4.921,1.1.008.785,0,1.571,0,2.357" transform="translate(-6.686 -3.955)" fill="#608d33"/>
      <path id="Tracé_723" data-name="Tracé 723" d="M52.667,28.868c0-.806-.008-1.611,0-2.417.008-.626.342-1.011.862-1.034a.932.932,0,0,1,.948,1.024c.015,1.61.013,3.221,0,4.832,0,.657-.366,1.055-.908,1.057s-.9-.382-.9-1.047c-.009-.806,0-1.611,0-2.417" transform="translate(-8.196 -3.955)" fill="#608d33"/>
      <path id="Tracé_724" data-name="Tracé 724" d="M31.882,8.072a3.273,3.273,0,0,1-6.546.03,3.3,3.3,0,0,1,3.3-3.307,3.269,3.269,0,0,1,3.251,3.277M28.609,6.643A1.448,1.448,0,0,0,27.156,8.1a1.471,1.471,0,0,0,1.5,1.425,1.442,1.442,0,0,0-.043-2.884" transform="translate(-3.943 -0.746)" fill="#608d33"/>
      <path id="Tracé_725" data-name="Tracé 725" d="M57.487,8.01c0-.785-.012-1.571,0-2.356.013-.69.334-1.055.893-1.062s.915.361.921,1.034q.023,2.417,0,4.832c-.006.668-.369,1.046-.922,1.037s-.88-.387-.893-1.069c-.014-.8,0-1.61,0-2.416" transform="translate(-8.946 -0.714)" fill="#608d33"/>
      <path id="Tracé_726" data-name="Tracé 726" d="M44.783,8.02c0,.826.009,1.652,0,2.477a.908.908,0,1,1-1.809.014q-.023-2.477,0-4.955a.887.887,0,0,1,.931-.964A.9.9,0,0,1,44.78,5.6c.011.806,0,1.611,0,2.417" transform="translate(-6.685 -0.714)" fill="#608d33"/>
      <path id="Tracé_727" data-name="Tracé 727" d="M52.668,8.007c0-.806-.009-1.611,0-2.417.009-.629.346-.994.885-1a.9.9,0,0,1,.923.977q.027,2.476,0,4.954a.9.9,0,0,1-.93.971c-.529-.009-.869-.385-.878-1.01-.012-.826,0-1.652,0-2.477" transform="translate(-8.196 -0.714)" fill="#608d33"/>
      <path id="Tracé_728" data-name="Tracé 728" d="M47.815,8.022c0-.806-.008-1.612,0-2.417.008-.627.341-1,.875-1.014a.908.908,0,0,1,.936,1.022q.016,2.417,0,4.834c0,.655-.364,1.05-.913,1.049s-.893-.4-.9-1.055c-.008-.806,0-1.612,0-2.417" transform="translate(-7.441 -0.714)" fill="#608d33"/>
      <path id="Tracé_729" data-name="Tracé 729" d="M9.778,58.92a3.065,3.065,0,1,1,3.085-3.058A3.088,3.088,0,0,1,9.778,58.92m1.261-3.042A1.245,1.245,0,1,0,9.794,57.1a1.262,1.262,0,0,0,1.245-1.223" transform="translate(-1.047 -8.215)" fill="#608d33"/>
    </g>
  </g>
</svg>
