<svg id="_x31_0.Linkedin" xmlns="http://www.w3.org/2000/svg" width="18.369" height="18.369" viewBox="0 0 18.369 18.369">
  <path id="Tracé_662" data-name="Tracé 662" d="M50.171,47.86V41.132c0-3.306-.712-5.832-4.569-5.832A3.987,3.987,0,0,0,42,37.275h-.046V35.6H38.3V47.86h3.812V41.775c0-1.607.3-3.146,2.273-3.146,1.952,0,1.975,1.814,1.975,3.237v5.97h3.811Z" transform="translate(-31.802 -29.491)" fill="#fff"/>
  <path id="Tracé_663" data-name="Tracé 663" d="M11.3,36.6h3.811V48.861H11.3Z" transform="translate(-11.002 -30.492)" fill="#fff"/>
  <path id="Tracé_664" data-name="Tracé 664" d="M12.2,10a2.216,2.216,0,1,0,2.2,2.2A2.2,2.2,0,0,0,12.2,10Z" transform="translate(-10 -10)" fill="#fff"/>
</svg>
