<svg id="Groupe_467" data-name="Groupe 467" xmlns="http://www.w3.org/2000/svg" xmlns:xlink="http://www.w3.org/1999/xlink" width="22.468" height="18.369" viewBox="0 0 22.468 18.369">
  <defs>
    <clipPath id="clip-path">
      <rect id="Rectangle_1501" data-name="Rectangle 1501" width="22.468" height="18.369" fill="#fff"/>
    </clipPath>
  </defs>
  <g id="Groupe_438" data-name="Groupe 438" clip-path="url(#clip-path)">
    <path id="Tracé_753" data-name="Tracé 753" d="M22.468,2.258a8.443,8.443,0,0,1-2.033,2.153.462.462,0,0,0-.2.439,13.147,13.147,0,0,1-1.336,6.1,12.9,12.9,0,0,1-4.9,5.52,12.612,12.612,0,0,1-5.035,1.77,13.785,13.785,0,0,1-3.806-.008A12.865,12.865,0,0,1,.045,16.352.364.364,0,0,1,0,16.3a9.448,9.448,0,0,0,6.787-1.922,5.583,5.583,0,0,1-.922-.119,4.649,4.649,0,0,1-3.316-2.872c-.1-.23-.079-.242.175-.206a4.712,4.712,0,0,0,1.644-.071.641.641,0,0,0,.108-.047A4.61,4.61,0,0,1,.869,6.484a4.66,4.66,0,0,0,2.041.542A4.669,4.669,0,0,1,.994,4.191a4.6,4.6,0,0,1,.5-3.314c.087.02.116.085.158.133a13.12,13.12,0,0,0,7.286,4.4,14.386,14.386,0,0,0,1.964.274c.164.014.154-.044.134-.173a4.571,4.571,0,0,1,1.526-4.375A4.439,4.439,0,0,1,16.315.062a4.475,4.475,0,0,1,2.533,1.284.271.271,0,0,0,.29.083,9.474,9.474,0,0,0,2.549-.96C21.742.437,21.8.41,21.9.36a4.688,4.688,0,0,1-1.964,2.511,4.057,4.057,0,0,0,.882-.139c.271-.066.541-.138.807-.221s.54-.19.81-.286a.3.3,0,0,0,.029.032" transform="translate(0 -0.001)" fill="#fff"/>
  </g>
</svg>
