<svg id="Groupe_409" data-name="Groupe 409" xmlns="http://www.w3.org/2000/svg" xmlns:xlink="http://www.w3.org/1999/xlink" width="58.14" height="59.266" viewBox="0 0 58.14 59.266">
  <defs>
    <clipPath id="clip-path">
      <rect id="Rectangle_1482" data-name="Rectangle 1482" width="58.14" height="59.266" fill="#608d33" stroke="#608d33" stroke-width="0.5"/>
    </clipPath>
  </defs>
  <g id="Groupe_407" data-name="Groupe 407" clip-path="url(#clip-path)">
    <path id="Tracé_707" data-name="Tracé 707" d="M28.5,59.266c-1.458-.632-1.755-.916-2.261-2.2h-.593c-1.987,0-3.975,0-5.962,0-.477,0-.859-.113-.9-.664-.033-.44.334-.725.915-.727,2.179,0,4.358,0,6.557,0a3,3,0,0,1,2.1-2.008V51.393h-.619c-3.145,0-6.29.012-9.435-.005a4.681,4.681,0,0,1-4.61-3.588,4.819,4.819,0,0,1,2.524-5.5,6.356,6.356,0,0,1,2.169-.5c1.068-.082,2.148-.021,3.249-.021V39.7c-1.074,0-2.146,0-3.218,0a4.835,4.835,0,0,1-2.788-.812,4.752,4.752,0,0,1-1.993-3.011c-.8,0-1.606,0-2.411,0a11,11,0,0,1-6-20.349,1.229,1.229,0,0,0,.539-.669A10.612,10.612,0,0,1,20.129,7.368c.064-.151.13-.3.193-.454A10.328,10.328,0,0,1,28.789.134,10.261,10.261,0,0,1,39.255,4.723a.552.552,0,0,0,.706.257,10.232,10.232,0,0,1,7.115.584,10.561,10.561,0,0,1,6.3,9.625,1.217,1.217,0,0,0,.522,1.048,10.948,10.948,0,0,1-5.363,19.521,34.946,34.946,0,0,1-3.8.022,18.66,18.66,0,0,1-1.291,2.255,4.356,4.356,0,0,1-3.487,1.656c-1.134.027-2.27.006-3.439.006v2.09c1.154,0,2.288-.018,3.42,0A4.834,4.834,0,0,1,42.37,50.68a4.889,4.889,0,0,1-2.643.714q-4.631-.006-9.261,0H29.8V53.66a2.979,2.979,0,0,1,2.083,2.016H38.05c.174,0,.348,0,.521,0,.475.013.794.243.792.729s-.332.659-.78.659H31.894a3.08,3.08,0,0,1-2.241,2.2Zm16.138-24.7a30.01,30.01,0,0,0,4.33-.288,9.215,9.215,0,0,0,7.59-7.549A9.51,9.51,0,0,0,52.515,16.9a1.139,1.139,0,0,1-.526-1.011,15.14,15.14,0,0,0-.2-2.356A9.257,9.257,0,0,0,39.916,6.455c-.98.314-1.093.227-1.675-.667a8.86,8.86,0,0,0-9.3-4.274,8.92,8.92,0,0,0-7.477,6.417c-.369,1.076-.582,1.208-1.614.788a9.286,9.286,0,0,0-12.822,6.8,1.454,1.454,0,0,1-.814,1.026A9.629,9.629,0,0,0,4.3,31.769c2.6,2.543,5.8,2.976,9.228,2.659a4.92,4.92,0,0,1,5.278-4.351c.933.071,1.876.011,2.816.011V28c-1.178,0-2.315,0-3.451,0A4.654,4.654,0,0,1,13.56,23.23,4.753,4.753,0,0,1,18.208,18.4q10.853-.006,21.707,0a4.783,4.783,0,0,1,4.662,4.23,4.632,4.632,0,0,1-3.606,5.23,26.31,26.31,0,0,1-3.8.149c-.221.006-.443,0-.65,0v2.084c1.148,0,2.263.009,3.378,0a4.345,4.345,0,0,1,2.454.725,5.088,5.088,0,0,1,2.283,3.756M29.075,50c3.589,0,7.178.012,10.768-.005a3.41,3.41,0,0,0,0-6.82q-10.768-.019-21.535.016a3.709,3.709,0,0,0-1.7.474,3.4,3.4,0,0,0-1.535,3.9A3.351,3.351,0,0,0,18.308,50c3.589.012,7.178,0,10.767,0m-.026-11.693q5.351,0,10.7,0a3.374,3.374,0,0,0,3.294-2.346,3.446,3.446,0,0,0-3.358-4.479c-4.32-.016-8.639,0-12.959,0-2.757,0-5.515-.013-8.273,0a3.428,3.428,0,0,0-3.4,4.26,3.328,3.328,0,0,0,3.294,2.563c3.568.011,7.136,0,10.7,0m0-11.694c3.549,0,7.1.012,10.648,0a3.414,3.414,0,1,0-.085-6.825q-8.623-.007-17.245,0c-1.331,0-2.662-.02-3.993.006A3.39,3.39,0,0,0,15.048,23.9a3.354,3.354,0,0,0,3.465,2.708c3.511.008,7.022,0,10.532,0m6.039,1.425H23.1v2H35.084ZM23.1,41.744H35.05V39.709H23.1Zm5.963,16.128a1.535,1.535,0,0,0,1.51-1.511,1.507,1.507,0,0,0-3-.018,1.538,1.538,0,0,0,1.492,1.529" transform="translate(0 0)" fill="#608d33" stroke="#608d33" stroke-width="0.5"/>
    <path id="Tracé_708" data-name="Tracé 708" d="M71.016,99.652c1.426,0,2.851,0,4.277,0,.627,0,.945.238.938.682s-.353.7-.941.7q-4.306,0-8.611,0c-.6,0-.927-.32-.852-.821.068-.46.386-.569.8-.568,1.464.005,2.928,0,4.392,0" transform="translate(-35.468 -53.701)" fill="#608d33" stroke="#608d33" stroke-width="0.5"/>
    <path id="Tracé_709" data-name="Tracé 709" d="M51.256,98.82a1.887,1.887,0,0,1,1.954-1.926,1.958,1.958,0,0,1,1.979,1.983,2.034,2.034,0,0,1-1.979,1.951,1.959,1.959,0,0,1-1.955-2.008m2.62.111c0-.079-.005-.158-.007-.237-.237-.135-.485-.386-.709-.367a.718.718,0,0,0-.47.545c.017.2.338.528.516.521.229-.008.447-.3.67-.462" transform="translate(-27.622 -52.216)" fill="#608d33" stroke="#608d33" stroke-width="0.5"/>
    <path id="Tracé_710" data-name="Tracé 710" d="M41.63,98.818a1.955,1.955,0,0,1-1.952,2.01A2.034,2.034,0,0,1,37.7,98.879a1.957,1.957,0,0,1,1.977-1.985,1.887,1.887,0,0,1,1.956,1.924M39.816,98.2l-.275-.006c-.15.219-.443.461-.413.651a.835.835,0,0,0,.557.549c.146.027.493-.318.514-.52s-.244-.448-.384-.674" transform="translate(-20.315 -52.216)" fill="#608d33" stroke="#608d33" stroke-width="0.5"/>
    <path id="Tracé_711" data-name="Tracé 711" d="M71.027,74.291c1.426,0,2.851,0,4.277,0,.625,0,.943.243.931.689s-.356.7-.947.7q-4.277,0-8.554,0c-.622,0-.908-.233-.91-.713s.256-.673.925-.674q2.139,0,4.277,0" transform="translate(-35.473 -40.035)" fill="#608d33" stroke="#608d33" stroke-width="0.5"/>
    <path id="Tracé_712" data-name="Tracé 712" d="M51.256,73.47A1.887,1.887,0,0,1,53.2,71.533a1.957,1.957,0,0,1,1.99,1.971,2.033,2.033,0,0,1-1.967,1.962,1.959,1.959,0,0,1-1.966-2M53.19,72.7c-.246.346-.538.58-.5.752.045.23.341.411.528.614.193-.2.5-.389.542-.621.031-.166-.288-.4-.565-.744" transform="translate(-27.622 -38.549)" fill="#608d33" stroke="#608d33" stroke-width="0.5"/>
    <path id="Tracé_713" data-name="Tracé 713" d="M39.656,71.533a1.886,1.886,0,0,1,1.974,1.906A1.955,1.955,0,0,1,39.7,75.466a2.031,2.031,0,0,1-2-1.988,1.955,1.955,0,0,1,1.959-1.945m.664,2.09c0-.088.005-.175.008-.263-.223-.144-.45-.408-.666-.4-.2.009-.556.344-.532.48a.843.843,0,0,0,.516.591c.2.033.448-.261.675-.41" transform="translate(-20.315 -38.549)" fill="#608d33" stroke="#608d33" stroke-width="0.5"/>
    <path id="Tracé_714" data-name="Tracé 714" d="M71,48.928c1.445,0,2.89,0,4.335,0,.478,0,.856.119.893.669.03.439-.338.721-.918.722-2.87,0-5.741,0-8.612,0-.46,0-.8-.13-.871-.636-.062-.474.218-.75.781-.753,1.464-.008,2.928,0,4.392,0" transform="translate(-35.469 -26.366)" fill="#608d33" stroke="#608d33" stroke-width="0.5"/>
    <path id="Tracé_715" data-name="Tracé 715" d="M51.256,48.114a1.886,1.886,0,0,1,1.937-1.943,1.956,1.956,0,0,1,2,1.966A2.03,2.03,0,0,1,53.17,50.1a1.96,1.96,0,0,1-1.914-1.991m2.616.179.012-.251c-.22-.159-.439-.434-.663-.44-.187,0-.486.278-.548.488a.455.455,0,0,0,.493.6c.245-.023.47-.257.7-.4" transform="translate(-27.622 -24.881)" fill="#608d33" stroke="#608d33" stroke-width="0.5"/>
    <path id="Tracé_716" data-name="Tracé 716" d="M39.688,46.171a1.885,1.885,0,0,1,1.942,1.937,1.953,1.953,0,0,1-1.965,2,2.032,2.032,0,0,1-1.968-2.02,1.958,1.958,0,0,1,1.991-1.913m-.143,2.637.28-.008c.137-.232.4-.474.376-.693a.794.794,0,0,0-.533-.518.456.456,0,0,0-.557.55c.042.241.282.447.434.669" transform="translate(-20.315 -24.882)" fill="#608d33" stroke="#608d33" stroke-width="0.5"/>
  </g>
</svg>
