<svg id="Groupe_389" data-name="Groupe 389" xmlns="http://www.w3.org/2000/svg" xmlns:xlink="http://www.w3.org/1999/xlink" width="45.422" height="49.267" viewBox="0 0 45.422 49.267">
  <defs>
    <clipPath id="clip-path">
      <rect id="Rectangle_1471" data-name="Rectangle 1471" width="45.422" height="49.267" fill="#fff"/>
    </clipPath>
  </defs>
  <g id="Groupe_388" data-name="Groupe 388" clip-path="url(#clip-path)">
    <path id="Tracé_676" data-name="Tracé 676" d="M38.2,19.585c0,4.469.005,8.938-.009,13.407a.85.85,0,0,0,.478.856,13.3,13.3,0,0,1,6.565,9.583,11.434,11.434,0,0,1,.186,1.915c0,.751-.292,1.053-1.042,1.054q-4.858,0-9.715-.005a.71.71,0,0,0-.707.375,2.121,2.121,0,0,1-3.658-.033.622.622,0,0,0-.623-.341q-4.833.014-9.666.006c-.88,0-1.164-.278-1.133-1.159a13.879,13.879,0,0,1,.142-1.522c.04-.274.01-.393-.3-.385-.677.017-1.355.015-2.032,0-.331-.007-.358.106-.234.378.247.539.469,1.09.705,1.634a.823.823,0,0,1-.062.931.874.874,0,0,1-.942.264c-.576-.141-1.167-.219-1.742-.361a.364.364,0,0,0-.478.2c-.3.511-.626,1.009-.937,1.514a.857.857,0,0,1-.838.5.87.87,0,0,1-.744-.634q-.609-1.459-1.227-2.915a1.52,1.52,0,0,0-1.73-.614c-.167.089-.2.256-.268.4q-.946,1.986-1.878,3.979c-.162.348-.361.644-.783.66a.921.921,0,0,1-.845-.583c-.25-.446-.537-.873-.761-1.331a.593.593,0,0,0-.76-.348c-.451.094-.905.18-1.361.254-.409.066-.834.15-1.135-.256-.282-.38-.13-.741.045-1.113.591-1.251,1.159-2.514,1.761-3.76.148-.307.072-.411-.211-.549A2.37,2.37,0,0,1,.844,38.868a3.611,3.611,0,0,0-.436-2.593,2.31,2.31,0,0,1,.547-3.194A3.839,3.839,0,0,0,2.3,30.754,2.368,2.368,0,0,1,4.662,28.7c.256-.022.36-.1.339-.354-.011-.131,0-.264,0-.4Q5,17.236,5,6.525A2.777,2.777,0,0,1,6.54,3.809a2.581,2.581,0,0,1,1.2-.257c1.867,0,3.734,0,5.6.007.3,0,.474-.015.5-.4a.744.744,0,0,1,.843-.719c.958,0,1.917-.011,2.875.006a.637.637,0,0,0,.662-.379A3.822,3.822,0,0,1,25,2.054a.659.659,0,0,0,.692.395c.909-.019,1.817-.01,2.726-.005.7,0,.88.145.957.839.04.358.269.269.462.269,1.817,0,3.635,0,5.453,0A2.651,2.651,0,0,1,38.2,6.475q0,6.555,0,13.11m-4.094.424V12.34c0-1.385-.01-2.771.006-4.156,0-.346-.107-.459-.454-.455-1.289.016-2.578.009-3.867,0-.245,0-.39.038-.418.341-.055.589-.317.815-.9.815q-6.866.005-13.732,0a.79.79,0,0,1-.905-.779c-.032-.364-.2-.379-.476-.377-1.223.007-2.446.027-3.668-.009-.472-.014-.565.142-.564.581q.021,9.178.009,18.356a2.431,2.431,0,0,1,0,.247c-.022.2.068.284.27.323a2.509,2.509,0,0,1,1.252.669,3.089,3.089,0,0,0,2.265.8,2.409,2.409,0,0,1,2.566,2.122,3.17,3.17,0,0,0,1.235,2.163,2.457,2.457,0,0,1,.944,1.413,2.5,2.5,0,0,1-.371,2.03,2.92,2.92,0,0,0-.4,2.311c.069.3.159.444.506.433.859-.028,1.719-.026,2.578,0a.747.747,0,0,0,.744-.421A13.024,13.024,0,0,1,33.59,32.178c.478.036.528-.077.527-.492-.014-3.892-.008-7.785-.008-11.677m.136,24.723c.094.118.219.074.327.075q2.551,0,5.1,0c.918,0,.871.134.7-.851a8.4,8.4,0,0,0-10-6.734,8.6,8.6,0,0,0-6.544,7.238c-.039.375.165.35.411.35,1.833,0,3.666-.006,5.5,0a.531.531,0,0,0,.54-.313,1.806,1.806,0,0,1,1.959-1.051,1.526,1.526,0,0,0,1.617-.681c.088-.1.186-.187.279-.281q1.261-1.258,2.523-2.516a.762.762,0,0,1,.851-.235.794.794,0,0,1,.54.652.925.925,0,0,1-.37.819q-1.558,1.556-3.115,3.114c-.121.121-.3.209-.318.41M11.057,43.043a.893.893,0,0,0,.875-.535A4.678,4.678,0,0,1,14.706,40.2a.927.927,0,0,0,.632-1.218,3.748,3.748,0,0,1,.38-2.945,3.693,3.693,0,0,0,.2-.4c.36-.729.361-.932-.253-1.461a4.669,4.669,0,0,1-1.711-2.954c-.108-.743-.444-.948-1.2-.952a3.971,3.971,0,0,1-2.677-.819c-.163-.138-.341-.258-.511-.387a.9.9,0,0,0-1.367.018,4.645,4.645,0,0,1-3.347,1.2.974.974,0,0,0-1.05.909A4.19,4.19,0,0,1,2.233,34.05a2.629,2.629,0,0,0-.385.385.729.729,0,0,0-.155.818,8.564,8.564,0,0,0,.379.8,3.858,3.858,0,0,1,.4,2.71c-.154.944-.028,1.245.841,1.552A4.3,4.3,0,0,1,5.7,42.281c.5.855.757.925,1.713.583a4.018,4.018,0,0,1,2.981.012,1.549,1.549,0,0,0,.667.167M21.613,7.311c1.9,0,3.8-.009,5.7.008.37,0,.49-.1.477-.475-.026-.774-.025-1.55,0-2.325.012-.362-.089-.5-.47-.483-.792.027-1.586.009-2.379.008A.971.971,0,0,1,23.8,3.257a2.363,2.363,0,0,0-1.3-1.475A2.233,2.233,0,0,0,19.452,3.2c-.252.711-.432.839-1.194.841-.81,0-1.62.016-2.429-.007-.353-.01-.456.115-.446.455.021.709.006,1.418.006,2.128,0,.691,0,.691.672.691h5.552M36.607,19.355q0-6.479,0-12.957c0-.813-.382-1.251-1.13-1.256-1.883-.011-3.766.006-5.649-.011-.449,0-.447.242-.463.568-.018.362.132.441.463.438,1.52-.014,3.039-.006,4.559-.006,1.068,0,1.325.251,1.325,1.294V31.856c0,.132-.006.264,0,.4a.721.721,0,0,0,.739.546c.3-.057.148-.326.148-.485q.016-6.479.008-12.958M6.653,28.149A1.325,1.325,0,0,0,7.57,26.76c-.033-6.482-.02-12.965-.019-19.447,0-.9.277-1.183,1.168-1.183,1.537,0,3.074-.016,4.611.01.427.008.478-.169.483-.524s-.082-.491-.468-.487c-1.785.019-3.57.008-5.355.009-.976,0-1.336.363-1.336,1.345V28.149m26.285,6.429c0,.181.006.362,0,.543-.012.264.1.384.373.4a7.613,7.613,0,0,1,2.058.46c1.145.4,1.138.389,1.7-.682.161-.306.12-.451-.2-.6a10.9,10.9,0,0,0-3.064-.878c-.87-.116-.869-.126-.868.752M41.769,38.9c-.075-.114-.136-.211-.2-.3a11.927,11.927,0,0,0-2.249-2.4c-.6-.505-.628-.513-1.016.177-.088.157-.175.317-.279.464a.419.419,0,0,0,.13.667,14.9,14.9,0,0,1,1.512,1.412c.292.265.374.855.821.806.373-.041.713-.379,1.068-.586a.464.464,0,0,0,.125-.078.887.887,0,0,0,.089-.16M31.362,34.62H31.35a2.71,2.71,0,0,1,0-.395c.068-.453-.164-.539-.547-.477a14.624,14.624,0,0,0-3.088.821c-.721.287-.719.289-.342.947.1.171.191.345.283.52a.4.4,0,0,0,.6.2,10.816,10.816,0,0,1,2.311-.684c.249-.049.6.106.73-.155a2.055,2.055,0,0,0,.059-.777m-4.913,2.522c-.244-.411-.484-.841-.752-1.253-.089-.136-.233-.056-.347.029a11.48,11.48,0,0,0-2.7,2.772c-.118.174-.129.3.048.408q.523.325,1.056.634c.145.084.248.008.332-.112a11.035,11.035,0,0,1,2.194-2.248c.072-.058.187-.086.169-.23M21.4,44.819a2.213,2.213,0,0,1,.247,0c.381.045.574-.028.606-.5A9.244,9.244,0,0,1,22.7,42.26c.111-.361.509-.736.3-1.068-.192-.3-.649-.42-.981-.634-.239-.153-.385-.164-.51.147a12.368,12.368,0,0,0-.881,3.162c-.112.953-.134.95.775.95m21.49,0c.914,0,.956-.025.844-.719a13.935,13.935,0,0,0-.812-3.087c-.273-.666-.267-.667-.907-.282a6.77,6.77,0,0,1-.6.345c-.213.1-.236.21-.141.422a9.011,9.011,0,0,1,.783,2.986c.018.221.112.335.336.334h.5M5.425,46.738c.3-.64.536-1.2.811-1.735.135-.264.075-.368-.195-.438A2.515,2.515,0,0,1,4.459,43.32a1.882,1.882,0,0,0-.489-.64c-.353.765-.7,1.5-1.036,2.248-.059.129-.2.269-.1.407.114.156.3.068.455.034,1.086-.231,1.161-.2,1.746.741l.391.628m6.952-.916c.215-.331.406-.58.548-.855a.847.847,0,0,1,1.1-.487,5.592,5.592,0,0,0,.773.142c.226.03.3-.053.2-.283-.2-.448-.377-.911-.592-1.354-.1-.213-.12-.588-.35-.594s-.365.33-.5.55a3.6,3.6,0,0,1-1.05,1.287c-.7.438-.7.434-.34,1.185.057.118.122.231.216.409m5.1-4.068a8.772,8.772,0,0,1,1.285.012c.558.083.749-.19.875-.656.081-.3,0-.364-.286-.355a10.721,10.721,0,0,1-1.681-.008,2.055,2.055,0,0,0-1.917.724c-.053.06-.144.1-.116.193s.128.087.207.088c.544,0,1.089,0,1.633,0M32.737,45.6c-.079-.309-.192-.588-.6-.583a.546.546,0,0,0-.573.6.537.537,0,0,0,.554.573c.366.012.556-.228.616-.591" transform="translate(0 0)" fill="#fff"/>
    <path id="Tracé_677" data-name="Tracé 677" d="M27.3,55.068c0-.576-.007-1.153,0-1.729a1.863,1.863,0,0,1,1.9-1.918c1.123-.013,2.245.006,3.367-.006a1.788,1.788,0,0,1,1.629.854c.2.323.329.263.541.04a8.069,8.069,0,0,1,.693-.633.77.77,0,0,1,1.143.031.761.761,0,0,1-.1,1.137q-.815.793-1.66,1.554a.761.761,0,0,0-.279.643c.019.576.01,1.153,0,1.73a1.9,1.9,0,0,1-1.762,2.02,20.124,20.124,0,0,1-3.8-.013A1.83,1.83,0,0,1,27.3,56.847c-.007-.593,0-1.186,0-1.779m5.61,1.153c-.1.081-.149.12-.2.165-.6.56-.934.56-1.511-.03-.5-.506-.971-1.032-1.461-1.543a.722.722,0,0,1-.135-.9.748.748,0,0,1,.74-.4.93.93,0,0,1,.769.454c.753.986.95,1,1.675.162a.712.712,0,0,0,.067-.073.877.877,0,0,0,.047-.8c-.084-.241-.326-.235-.548-.235-.991,0-1.983.012-2.974,0-.366-.006-.5.133-.493.495.014,1.056.017,2.111,0,3.166-.006.39.14.523.524.515.909-.018,1.817-.006,2.726-.006.831,0,.887-.066.772-.963" transform="translate(-16.389 -30.864)" fill="#fff"/>
    <path id="Tracé_678" data-name="Tracé 678" d="M27.3,30.42c0-.577-.007-1.154,0-1.73a1.915,1.915,0,0,1,1.97-1.97c1.073-.008,2.146,0,3.22,0a1.881,1.881,0,0,1,1.744.929c.17.287.283.225.465.035A9.776,9.776,0,0,1,35.419,27a.839.839,0,0,1,1.126-.015.823.823,0,0,1-.03,1.158c-.55.546-1.12,1.072-1.693,1.593a.763.763,0,0,0-.281.642c.019.593.015,1.186,0,1.779a1.943,1.943,0,0,1-2.018,1.981q-1.61.007-3.22,0a1.918,1.918,0,0,1-2-1.987c-.007-.577,0-1.154,0-1.73m1.594.022c0,.527.006,1.054,0,1.582-.006.375.167.537.54.534,1.007-.008,2.014,0,3.021,0,.265,0,.466-.094.492-.372.018-.185.112-.441-.068-.549-.153-.092-.263.143-.377.248a.693.693,0,0,1-.91.1,11.9,11.9,0,0,1-1.93-1.972.674.674,0,0,1,.194-1.03.717.717,0,0,1,1.024.069c.144.135.281.279.42.419.8.8.8.8,1.516-.074a.844.844,0,0,0,.095-.841c-.081-.269-.347-.254-.584-.253-.957,0-1.915.008-2.872,0-.4,0-.573.166-.564.564.012.527,0,1.054,0,1.582" transform="translate(-16.389 -16.038)" fill="#fff"/>
    <path id="Tracé_679" data-name="Tracé 679" d="M58.716,31.641H54.257a1.318,1.318,0,0,1-.584-.078.769.769,0,0,1-.5-.777.726.726,0,0,1,.632-.719,3.8,3.8,0,0,1,.639-.055q4.36,0,8.719,0a3.265,3.265,0,0,1,.541.038.785.785,0,0,1,.015,1.564,2.81,2.81,0,0,1-.493.026q-2.254,0-4.508,0" transform="translate(-31.917 -18.015)" fill="#fff"/>
    <path id="Tracé_680" data-name="Tracé 680" d="M58.786,53.8q-2.3,0-4.609,0c-.648,0-1.04-.319-1.022-.817.018-.482.393-.768,1.021-.768q4.609,0,9.217,0c.636,0,1.04.328,1.022.817-.018.472-.4.767-1.021.768q-2.3,0-4.609,0" transform="translate(-31.909 -31.345)" fill="#fff"/>
    <path id="Tracé_681" data-name="Tracé 681" d="M58.11,39.546c-1.271,0-2.541,0-3.812,0a2.045,2.045,0,0,1-.585-.071.73.73,0,0,1-.543-.742.743.743,0,0,1,.548-.74,1.267,1.267,0,0,1,.387-.066c2.69,0,5.38-.008,8.07,0,.66,0,1.034.437.893,1.006-.121.488-.5.614-.949.615q-2,0-4.01,0" transform="translate(-31.918 -22.763)" fill="#fff"/>
    <path id="Tracé_682" data-name="Tracé 682" d="M58.156,60.125q1.958,0,3.915,0c.685,0,1.022.271,1.01.8-.012.512-.346.783-.988.783q-3.965,0-7.929,0c-.6,0-1-.324-1.006-.789,0-.488.367-.794.984-.8,1.338,0,2.676,0,4.014,0" transform="translate(-31.911 -36.092)" fill="#fff"/>
    <path id="Tracé_683" data-name="Tracé 683" d="M19.4,81.552a5.534,5.534,0,1,1-5.471-5.56,5.487,5.487,0,0,1,5.471,5.56m-9.447-.03a3.936,3.936,0,1,0,3.97-3.941,3.942,3.942,0,0,0-3.97,3.941" transform="translate(-4.999 -45.618)" fill="#fff"/>
    <path id="Tracé_684" data-name="Tracé 684" d="M52.128,7.264a.8.8,0,1,1,1.59-.016.856.856,0,0,1-.85.842.779.779,0,0,1-.739-.826" transform="translate(-31.292 -3.848)" fill="#fff"/>
    <path id="Tracé_685" data-name="Tracé 685" d="M17.326,88.831a4,4,0,0,1-1.935-1.873.756.756,0,0,1,.426-.772.767.767,0,0,1,.874.119c.244.177.374.609.706.526.255-.064.448-.37.669-.567.48-.428.951-.866,1.442-1.281a.774.774,0,0,1,1.181.035.806.806,0,0,1-.143,1.142c-.871.807-1.753,1.6-2.633,2.4a1,1,0,0,1-.587.273" transform="translate(-9.238 -50.862)" fill="#fff"/>
  </g>
</svg>
