<svg xmlns="http://www.w3.org/2000/svg" xmlns:xlink="http://www.w3.org/1999/xlink" width="43.453" height="43.36" viewBox="0 0 43.453 43.36">
  <defs>
    <clipPath id="clip-path">
      <rect id="Rectangle_1470" data-name="Rectangle 1470" width="43.453" height="43.36" fill="#fff"/>
    </clipPath>
  </defs>
  <g id="Groupe_387" data-name="Groupe 387" transform="translate(289 94)">
    <g id="Groupe_386" data-name="Groupe 386" transform="translate(-289 -94)" clip-path="url(#clip-path)">
      <path id="Tracé_672" data-name="Tracé 672" d="M43.453,22.536c-.112.851-.2,1.707-.341,2.554a20.922,20.922,0,0,1-17.95,18,22.178,22.178,0,0,1-14.35-2.528A20.23,20.23,0,0,1,.937,27.858a22.194,22.194,0,0,1-.88-7.8A21.066,21.066,0,0,1,3.682,9.651,21.5,21.5,0,0,1,16.712.6a21.739,21.739,0,0,1,26.67,19.448,3.213,3.213,0,0,0,.071.368ZM21.709,41.785c10.961.02,20.183-8.988,20.005-19.9C41.508,9.216,32.256,1.822,21.732,1.827,11.011,1.832,1.94,9.392,1.724,21.859c-.189,10.9,9,19.906,19.985,19.926" transform="translate(0 0)" fill="#fff"/>
      <path id="Tracé_673" data-name="Tracé 673" d="M11.837,27.821h1.809c1.429,0,2.857,0,4.286,0,.235,0,.394-.012.428-.316a9.981,9.981,0,0,1,3.05-6.181c.039-.038.069-.085.135-.166a18.878,18.878,0,0,1-5.538-3.534c-.323.4-.639.793-.949,1.186-.113.144-.209.3-.322.447a.855.855,0,0,1-1.193.243.81.81,0,0,1-.195-1.194,25.351,25.351,0,0,1,1.991-2.473,17.767,17.767,0,0,1,10.989-5.329A17.51,17.51,0,0,1,39.1,13.7,17.843,17.843,0,0,1,46.69,26.521a18.355,18.355,0,0,1-36.37,4.944,17.543,17.543,0,0,1,0-5.45,1.841,1.841,0,0,1,.182-.6.823.823,0,0,1,1-.339.848.848,0,0,1,.538.914c-.059.588-.129,1.175-.2,1.834m16.643-7.639A8.428,8.428,0,0,0,20,28.543a8.265,8.265,0,0,0,8.459,8.56,8.26,8.26,0,0,0,8.486-8.492,8.428,8.428,0,0,0-8.46-8.429m6.911.978c.1.108.166.193.243.271a9.977,9.977,0,0,1,2.938,6.058c.037.327.206.335.454.334,1.881-.006,3.763,0,5.644,0,.124,0,.247-.014.411-.025a16.617,16.617,0,0,0-4.16-10.158,18.882,18.882,0,0,1-5.531,3.522m3.231,8.386a10.336,10.336,0,0,1-3.248,6.611,19.011,19.011,0,0,1,5.549,3.527,16.645,16.645,0,0,0,4.158-10.138Zm-26.772,0a16.647,16.647,0,0,0,4.165,10.143,19.02,19.02,0,0,1,5.545-3.534,10.315,10.315,0,0,1-3.249-6.608ZM24.2,37.934a1.642,1.642,0,0,0,.017.2,16.946,16.946,0,0,0,1.9,5.094,7.15,7.15,0,0,0,1.222,1.5,1.588,1.588,0,0,0,2.263.013,5.042,5.042,0,0,0,.879-.968,16.25,16.25,0,0,0,2.258-5.711c.007-.031-.02-.069-.034-.113a10.485,10.485,0,0,1-8.5-.014M32.754,19.4c-.014-.1-.018-.151-.03-.2a17.588,17.588,0,0,0-1.75-4.841,8.156,8.156,0,0,0-1.212-1.62,1.684,1.684,0,0,0-2.587-.018,5.576,5.576,0,0,0-.741.868,15.987,15.987,0,0,0-2.126,5.183c-.05.193-.084.39-.136.635a10.535,10.535,0,0,1,8.58-.006m-7.535-7.054a16.765,16.765,0,0,0-8.013,4.077,16.651,16.651,0,0,0,5.148,3.228,19.941,19.941,0,0,1,2.865-7.3m9.359,7.308a16.634,16.634,0,0,0,5.145-3.228,16.652,16.652,0,0,0-8-4.074,19.858,19.858,0,0,1,2.855,7.3M34.633,37.7c-.376,1.28-.667,2.536-1.118,3.731s-1.07,2.347-1.614,3.512A16.49,16.49,0,0,0,39.727,40.9,16.644,16.644,0,0,0,34.633,37.7M17.208,40.9a16.7,16.7,0,0,0,8.006,4.071,19.9,19.9,0,0,1-2.862-7.3A16.708,16.708,0,0,0,17.208,40.9" transform="translate(-6.747 -6.919)" fill="#fff"/>
      <path id="Tracé_674" data-name="Tracé 674" d="M14.78,45.042a.807.807,0,0,1-.819-.84.822.822,0,0,1,.825-.844.84.84,0,0,1,.847.871.821.821,0,0,1-.853.813" transform="translate(-9.32 -28.944)" fill="#fff"/>
      <path id="Tracé_675" data-name="Tracé 675" d="M52.161,54.458c1-1.009,1.913-1.939,2.842-2.848a2.433,2.433,0,0,1,2.546-.6,2.366,2.366,0,0,1,1.71,1.876,2.417,2.417,0,0,1-.647,2.308c-1.542,1.556-3.085,3.111-4.649,4.645a2.517,2.517,0,0,1-3.493,0Q49.264,58.67,48.1,57.463a2.54,2.54,0,0,1,3.532-3.647,5.415,5.415,0,0,1,.527.643m-3.188,1.2a5.111,5.111,0,0,0,.491.763c.644.674,1.313,1.325,1.973,1.983.582.581.992.578,1.584-.014q2.084-2.082,4.165-4.167a1.85,1.85,0,0,0,.306-.349.811.811,0,0,0-.065-.986.776.776,0,0,0-.916-.253,1.4,1.4,0,0,0-.474.341C55.013,53.99,54,55.013,52.977,56.03c-.557.555-.954.55-1.52-.009-.322-.318-.634-.646-.968-.949a.716.716,0,0,0-.9-.11,3.641,3.641,0,0,0-.613.7" transform="translate(-31.64 -33.963)" fill="#fff"/>
    </g>
  </g>
</svg>
