<svg id="Groupe_391" data-name="Groupe 391" xmlns="http://www.w3.org/2000/svg" xmlns:xlink="http://www.w3.org/1999/xlink" width="36.291" height="48.878" viewBox="0 0 36.291 48.878">
  <defs>
    <clipPath id="clip-path">
      <rect id="Rectangle_1472" data-name="Rectangle 1472" width="36.291" height="48.878" fill="#fff" stroke="#fff" stroke-width="0.4"/>
    </clipPath>
  </defs>
  <g id="Groupe_390" data-name="Groupe 390" clip-path="url(#clip-path)">
    <path id="Tracé_686" data-name="Tracé 686" d="M27.586,32.489c.4.635.708,1.137,1.021,1.637l2.427,3.884c.369.591.378.945.027,1.15s-.632.049-1.014-.562q-1.457-2.329-2.916-4.658c-.088-.141-.181-.278-.291-.446-.1.109-.176.194-.253.281a3.833,3.833,0,0,1-3.84,1.329,3.04,3.04,0,0,0-2.415.494.424.424,0,0,0-.22.536q1.441,5.588,2.87,11.179a1.614,1.614,0,0,0,.214.372c.112-.11.263-.2.331-.332.855-1.657,1.7-3.321,2.543-4.983.394-.773.458-.8,1.256-.527,1.731.593,3.461,1.189,5.194,1.777a5.769,5.769,0,0,0,.7.129c-.211-.368-.337-.6-.472-.824-.183-.305-.38-.6-.558-.911a.531.531,0,0,1,.183-.793.518.518,0,0,1,.758.167,18.823,18.823,0,0,1,1.006,1.649,1.2,1.2,0,0,1-.223,1.417,1.226,1.226,0,0,1-1.383.383Q30.074,44,27.623,43.162l-.566-.19c-.459.9-.913,1.786-1.365,2.674-.385.755-.765,1.513-1.151,2.267a1.424,1.424,0,0,1-1.42.951c-.649-.066-1.038-.441-1.24-1.224q-1.407-5.465-2.807-10.933c-.041-.16-.09-.319-.131-.462H17.331c-.267,1.037-.542,2.1-.815,3.16q-1.066,4.162-2.134,8.323a1.3,1.3,0,0,1-1.8,1.029,1.9,1.9,0,0,1-.8-.8c-.815-1.525-1.583-3.075-2.368-4.616-.061-.119-.131-.232-.209-.37L4.3,44.662c-.176.061-.352.123-.531.173a1.294,1.294,0,0,1-1.455-.449,1.284,1.284,0,0,1-.082-1.524c.357-.6.732-1.182,1.1-1.772q.9-1.446,1.806-2.892c.326-.52.633-.658.968-.441s.322.55-.005,1.073q-1.348,2.158-2.7,4.315c-.094.151-.168.314-.324.606a5.846,5.846,0,0,0,.695-.131c1.764-.6,3.525-1.21,5.287-1.816.64-.22.789-.162,1.092.434.863,1.691,1.719,3.386,2.589,5.074a1.845,1.845,0,0,0,.355.374,2.047,2.047,0,0,0,.226-.426c.949-3.693,1.886-7.39,2.841-11.081a.477.477,0,0,0-.255-.613,3.073,3.073,0,0,0-2.376-.458,3.833,3.833,0,0,1-3.838-1.334c-.076-.087-.157-.17-.257-.279-.44.7-.859,1.377-1.285,2.048-.275.433-.613.562-.914.337-.371-.279-.279-.605-.067-.94.487-.771.968-1.546,1.514-2.42a9.166,9.166,0,0,0-1.174-.432,3.929,3.929,0,0,1-3.282-3.259A3.028,3.028,0,0,0,2.892,26.87,3.825,3.825,0,0,1,1.2,22.715a2.979,2.979,0,0,0-.446-2.283,3.842,3.842,0,0,1,0-4.572A2.982,2.982,0,0,0,1.2,13.577,3.826,3.826,0,0,1,2.9,9.424,3.1,3.1,0,0,0,4.246,7.416,3.81,3.81,0,0,1,7.421,4.25,3.021,3.021,0,0,0,9.395,2.935,3.8,3.8,0,0,1,13.529,1.2,3.169,3.169,0,0,0,15.948.707a3.764,3.764,0,0,1,4.395,0,3.234,3.234,0,0,0,2.47.484A3.723,3.723,0,0,1,26.8,2.816a3.458,3.458,0,0,0,2.216,1.471,3.673,3.673,0,0,1,2.97,2.936,3.593,3.593,0,0,0,1.526,2.3A3.728,3.728,0,0,1,35.1,13.483a3.269,3.269,0,0,0,.48,2.471,3.763,3.763,0,0,1,0,4.4,3.261,3.261,0,0,0-.477,2.471,3.733,3.733,0,0,1-1.594,3.962A3.524,3.524,0,0,0,32,29.03a3.77,3.77,0,0,1-2.932,2.985c-.467.123-.922.294-1.48.475M14.255,33.859a4.219,4.219,0,0,1,2.29.758,2.68,2.68,0,0,0,3.193,0,4.164,4.164,0,0,1,3.248-.637A2.587,2.587,0,0,0,25.805,32.9a4.618,4.618,0,0,1,3.035-2.03,2.519,2.519,0,0,0,2.041-2.1,4.415,4.415,0,0,1,1.949-2.913,2.594,2.594,0,0,0,1.14-2.84,4.134,4.134,0,0,1,.626-3.25,2.706,2.706,0,0,0,0-3.238,4.074,4.074,0,0,1-.633-3.2,2.644,2.644,0,0,0-1.174-2.921,4.3,4.3,0,0,1-1.9-2.834,2.622,2.622,0,0,0-2.2-2.185A4.229,4.229,0,0,1,25.9,3.523a2.615,2.615,0,0,0-2.859-1.2A4.277,4.277,0,0,1,19.7,1.659a2.639,2.639,0,0,0-3.107,0,4.2,4.2,0,0,1-3.291.669,2.666,2.666,0,0,0-2.941,1.235A4.031,4.031,0,0,1,7.7,5.364,2.725,2.725,0,0,0,5.364,7.67a4.108,4.108,0,0,1-1.824,2.706,2.673,2.673,0,0,0-1.217,2.951,4.017,4.017,0,0,1-.6,3.157,2.753,2.753,0,0,0,0,3.324,4.012,4.012,0,0,1,.609,3.156,2.67,2.67,0,0,0,1.21,2.954A4.157,4.157,0,0,1,5.376,28.67a2.684,2.684,0,0,0,2.262,2.256,4.147,4.147,0,0,1,2.747,1.847,2.729,2.729,0,0,0,2.964,1.2c.3-.052.6-.08.907-.119" transform="translate(0 0)" fill="#fff" stroke="#fff" stroke-width="0.4"/>
    <path id="Tracé_687" data-name="Tracé 687" d="M41.777,30.29A11.715,11.715,0,0,0,30.509,18.5c-.7-.023-1-.209-.98-.617s.339-.581,1.026-.547a12.831,12.831,0,1,1-5.626,1.081c.371-.157.73-.258.97.18.181.331,0,.645-.468.855A11.678,11.678,0,1,0,41.689,31.562c.06-.471.067-.948.088-1.272" transform="translate(-11.958 -12.005)" fill="#fff" stroke="#fff" stroke-width="0.4"/>
    <path id="Tracé_688" data-name="Tracé 688" d="M37.67,49.016c.072-.429.152-1.036.28-1.632a1.377,1.377,0,0,0-.457-1.5,16.087,16.087,0,0,1-1.167-1.136,1.984,1.984,0,0,1-.508-2.11,1.93,1.93,0,0,1,1.595-1.4c.617-.11,1.238-.206,1.86-.284a1.12,1.12,0,0,0,.941-.676c.239-.506.494-1,.737-1.508a2.1,2.1,0,0,1,3.851-.015c.253.518.511,1.033.761,1.552a1.088,1.088,0,0,0,.908.643c.639.084,1.277.177,1.91.295a1.919,1.919,0,0,1,1.555,1.377,1.967,1.967,0,0,1-.458,2.076c-.421.442-.853.877-1.307,1.285a1.188,1.188,0,0,0-.4,1.188c.088.484.163.97.256,1.453a2.113,2.113,0,0,1-.783,2.311,2.076,2.076,0,0,1-2.391.07c-.459-.255-.931-.488-1.392-.741a1.126,1.126,0,0,0-1.16,0c-.58.316-1.158.644-1.764.9a2.081,2.081,0,0,1-2.874-2.146m1.139.151a.925.925,0,0,0,1.36.91c.582-.275,1.142-.6,1.713-.892a2.055,2.055,0,0,1,2,0c.526.273,1.054.543,1.574.829a.957.957,0,0,0,1.14-.023.989.989,0,0,0,.33-1.053c-.107-.583-.2-1.169-.3-1.754a2.046,2.046,0,0,1,.621-1.9,16.3,16.3,0,0,0,1.325-1.334A1.216,1.216,0,0,0,48.823,43a1.2,1.2,0,0,0-.75-.629,12.1,12.1,0,0,0-1.8-.3,2.131,2.131,0,0,1-1.732-1.251c-.254-.517-.512-1.032-.759-1.552a.953.953,0,0,0-1.8,0q-.394.825-.81,1.64a2.066,2.066,0,0,1-1.633,1.153c-.6.089-1.205.192-1.81.272A.915.915,0,0,0,36.9,43a.939.939,0,0,0,.305,1.011c.454.433.9.87,1.345,1.318a2.012,2.012,0,0,1,.59,1.812c-.111.686-.225,1.371-.333,2.031" transform="translate(-24.737 -25.976)" fill="#fff" stroke="#fff" stroke-width="0.4"/>
  </g>
</svg>
