<svg xmlns="http://www.w3.org/2000/svg" xmlns:xlink="http://www.w3.org/1999/xlink" width="59.368" height="59.368" viewBox="0 0 59.368 59.368">
  <defs>
    <clipPath id="clip-path">
      <rect id="Rectangle_1491" data-name="Rectangle 1491" width="58.4" height="58.369" fill="#608d33" stroke="#fff" stroke-width="1"/>
    </clipPath>
  </defs>
  <g id="Groupe_421" data-name="Groupe 421" transform="translate(0.5 0.5)">
    <path id="Tracé_733" data-name="Tracé 733" d="M3.64,0V51.069H0v3.65H3.65v3.65H7.3v-3.68H58.368V51.058H7.343v-7.3h7.221V40.1H7.329V29.159h7.227V25.5H7.336V14.545H14.57V10.907H7.275V0Z" transform="translate(0 0)" fill="#608d33" stroke="#fff" stroke-width="1"/>
    <g id="Groupe_420" data-name="Groupe 420">
      <g id="Groupe_419" data-name="Groupe 419" clip-path="url(#clip-path)">
        <path id="Tracé_734" data-name="Tracé 734" d="M67.378,40.729V37.061h.583q5.93,0,11.861,0A1.875,1.875,0,0,1,81.949,39.2c0,4.124,0,8.248,0,12.418h-3.63v-8.3c-.241.222-.391.35-.53.489q-7.159,7.156-14.307,14.321a2.067,2.067,0,0,1-3.209.016c-2.3-2.428-4.692-4.77-7.041-7.151a3.165,3.165,0,0,1-.32-.454L41.426,62.022,38.805,59.4c.027-.03.131-.155.246-.269Q45.179,53,51.309,46.875a1.862,1.862,0,0,1,2.976-.008c2.559,2.494,5.127,4.978,7.631,7.407L75.46,40.729Z" transform="translate(-23.55 -22.492)" fill="#608d33" stroke="#fff" stroke-width="1"/>
      </g>
    </g>
  </g>
</svg>
