<svg id="Groupe_425" data-name="Groupe 425" xmlns="http://www.w3.org/2000/svg" xmlns:xlink="http://www.w3.org/1999/xlink" width="53.8" height="60" viewBox="0 0 53.8 60">
  <defs>
    <clipPath id="clip-path">
      <rect id="Rectangle_1493" data-name="Rectangle 1493" width="53.8" height="60" fill="#608d33"/>
    </clipPath>
  </defs>
  <g id="Groupe_424" data-name="Groupe 424" clip-path="url(#clip-path)">
    <path id="Tracé_739" data-name="Tracé 739" d="M49.176,60a6.154,6.154,0,0,1-2.909-1.955c-.76-.81-1.558-1.586-2.237-2.273a41.065,41.065,0,0,1-4.292,1.422,14.349,14.349,0,0,1-12.926-3.319,1.62,1.62,0,0,0-1.147-.43q-7.441.021-14.881.009a4.876,4.876,0,0,1-5.217-5.185q-.006-9.254,0-18.508c0-.156-.006-.313.01-.468a.807.807,0,0,1,.79-.793.8.8,0,0,1,.9.659,2.945,2.945,0,0,1,.05.7q0,9.254,0,18.508a3.11,3.11,0,0,0,2.4,3.247,3.145,3.145,0,0,0,.752.083q6.913.007,13.826,0c.11,0,.221-.012.231-.013l-2.539-5.295c-.632,0-1.472.043-2.3-.023a1.241,1.241,0,0,1-.831-.5.929.929,0,0,1,.068-.846,1.166,1.166,0,0,1,.792-.365c.7-.05,1.4-.017,2.142-.017-.044-.658-.084-1.253-.13-1.935-.729,0-1.448.019-2.164-.006a.8.8,0,0,1-.826-.822.793.793,0,0,1,.641-.863,2.419,2.419,0,0,1,.58-.049c.605-.006,1.209,0,1.819,0l1-3.8c-.976,0-1.959.01-2.942-.007-.244,0-.583-.018-.707-.168a1.408,1.408,0,0,1-.341-.907c.041-.459.434-.669.894-.671,1.171-.006,2.344-.017,3.515,0a.762.762,0,0,0,.8-.423c.263-.475.6-.908.988-1.478h-.6c-1.543,0-3.086.027-4.627-.023a1.324,1.324,0,0,1-.893-.5.872.872,0,0,1,.062-.839,1.354,1.354,0,0,1,.905-.378c2.128-.031,4.257-.007,6.385-.028A1.377,1.377,0,0,0,27,31.475c5.067-3.981,10.513-4.583,16.343-1.871.12.056.238.115.416.2V17.58h-.608q-2.637,0-5.273,0a3.044,3.044,0,0,1-3.331-3.355c0-1.932,0-3.864,0-5.844H22.464c1.036,4.456.025,8.352-3.371,11.459s-7.343,3.723-11.77,2.281c0,.757,0,1.464,0,2.172,0,.332.019.666-.012.995a.883.883,0,0,1-.878.852.863.863,0,0,1-.86-.914c-.016-1.171-.019-2.343,0-3.514a.783.783,0,0,0-.409-.753A11.466,11.466,0,0,1,.234,9.146,11.676,11.676,0,0,1,9.461.177,11.488,11.488,0,0,1,21.48,6.043a.85.85,0,0,0,.888.543c4.237-.019,8.475,0,12.712-.02a1.605,1.605,0,0,1,1.242.509q4.356,4.384,8.741,8.738a1.606,1.606,0,0,1,.506,1.243c-.014,4.451,0,8.9-.017,13.354a1.079,1.079,0,0,0,.429.937A14.514,14.514,0,0,1,51.3,41.358c.076.767-.181,1.17-.74,1.227-.585.06-.917-.3-1.01-1.09a12.709,12.709,0,0,0-7.423-10.5,13.038,13.038,0,1,0,7.047,15.175c.05-.188.083-.382.146-.566a.867.867,0,0,1,1.1-.605.83.83,0,0,1,.582,1.06c-.4,1.2-.836,2.387-1.321,3.553-.154.369-.157.567.135.846.889.849,1.721,1.76,2.622,2.6A3.963,3.963,0,0,1,50.72,59.9c-.051.011-.092.064-.138.1Zm-33.8-44.623A27.316,27.316,0,0,0,15.4,7.76c-.017-.128-.286-.3-.454-.317a30.261,30.261,0,0,0-7.008-.015c-.3.034-.49.117-.5.487-.051,1.558-.171,3.114-.185,4.672-.008.925.137,1.852.215,2.8a30.024,30.024,0,0,0,7.906-.007m30.3,39.474-.229-.159a1.1,1.1,0,0,0,.1.139c.908.91,1.809,1.83,2.731,2.727a2.178,2.178,0,1,0,3.087-3.072c-.855-.881-1.732-1.741-2.6-2.607a2.993,2.993,0,0,0-.3-.234l.179.236-2.964,2.97M15.115,5.555c-.376-1.058-.74-2.121-1.142-3.17a.733.733,0,0,0-.461-.361,8.925,8.925,0,0,0-4.172,0,.668.668,0,0,0-.422.331c-.4,1.062-.773,2.136-1.151,3.2ZM7.764,17.318c.374,1.056.728,2.1,1.126,3.131a.791.791,0,0,0,.49.407,8.964,8.964,0,0,0,4.109.008c.155-.035.372-.128.419-.249.421-1.09.81-2.194,1.21-3.3Zm9.556-2.207c1.042-.366,2.074-.706,3.083-1.1a.917.917,0,0,0,.466-.572,9.271,9.271,0,0,0,.012-4c-.034-.16-.1-.387-.215-.447A12.6,12.6,0,0,0,17.32,7.863Zm-11.764,0V7.757c-1.1.4-2.2.784-3.28,1.2a.548.548,0,0,0-.246.358,9.266,9.266,0,0,0,0,4.233.661.661,0,0,0,.336.416c1.05.4,2.112.77,3.193,1.158m36.7.7L36.31,9.873c0,1.489-.018,3.1.008,4.716a1.168,1.168,0,0,0,1.174,1.218c1.631.031,3.263.01,4.763.01M16.215,3.049c.233.957.439,1.821.659,2.682a.382.382,0,0,0,.2.249c.883.231,1.771.443,2.743.681a9.878,9.878,0,0,0-3.6-3.612m0,16.774a9.77,9.77,0,0,0,3.608-3.615c-.945.237-1.807.445-2.661.678a.49.49,0,0,0-.29.294c-.224.84-.422,1.686-.656,2.644M6.661,3.06a9.638,9.638,0,0,0-3.6,3.614c.931-.236,1.756-.439,2.576-.661.13-.035.317-.13.345-.233.238-.871.445-1.752.685-2.721m0,16.737c-.235-.958-.442-1.82-.665-2.677a.371.371,0,0,0-.219-.227c-.874-.23-1.752-.443-2.716-.683a9.5,9.5,0,0,0,3.6,3.588" transform="translate(0 0)" fill="#608d33"/>
    <path id="Tracé_740" data-name="Tracé 740" d="M43.389,63.207a9.813,9.813,0,1,1,9.794,9.863,9.823,9.823,0,0,1-9.794-9.863m1.758.03a8.055,8.055,0,1,0,8.089-8.063,8.076,8.076,0,0,0-8.089,8.063" transform="translate(-16.628 -20.472)" fill="#608d33"/>
    <path id="Tracé_741" data-name="Tracé 741" d="M23.521,68.814c.212,2.329-1.064,3.389-3.2,3.194-.29-.027-.585,0-.878-.006a2.3,2.3,0,0,1-2.289-2.085,12.2,12.2,0,0,1-.012-2.16,2.312,2.312,0,0,1,2.277-2.168c.584-.029,1.171-.025,1.755,0a2.355,2.355,0,0,1,2.348,2.408c.006.273,0,.546,0,.82m-3.193,1.438c1.436,0,1.436,0,1.436-1.462s0-1.452-1.451-1.452-1.448,0-1.448,1.467c0,1.447,0,1.447,1.464,1.447" transform="translate(-6.552 -25.128)" fill="#608d33"/>
    <path id="Tracé_742" data-name="Tracé 742" d="M23.524,53.9c0,.312.011.625,0,.936a2.308,2.308,0,0,1-2.207,2.227c-.662.03-1.327.028-1.988,0a2.22,2.22,0,0,1-2.146-1.952,12.109,12.109,0,0,1,0-2.447A2.216,2.216,0,0,1,19.312,50.7c.622-.033,1.248-.027,1.872-.01a2.314,2.314,0,0,1,2.343,2.394c0,.273,0,.546,0,.818Zm-3.186,1.419c1.433,0,1.433,0,1.433-1.391,0-1.488,0-1.488-1.51-1.488-1.39,0-1.39,0-1.39,1.391,0,1.489,0,1.489,1.466,1.489" transform="translate(-6.56 -19.419)" fill="#608d33"/>
    <path id="Tracé_743" data-name="Tracé 743" d="M40.9,42.135a3.351,3.351,0,0,1-2.537-1.01.88.88,0,1,1,1.191-1.285,1.578,1.578,0,0,0,2.425-.022.875.875,0,1,1,1.23,1.243A3.186,3.186,0,0,1,40.9,42.135" transform="translate(-14.569 -15.155)" fill="#608d33"/>
    <path id="Tracé_744" data-name="Tracé 744" d="M31.325,38.951a6.358,6.358,0,0,1-.006.759.813.813,0,0,1-.848.794.793.793,0,0,1-.876-.759,8.9,8.9,0,0,1-.007-1.517.869.869,0,0,1,1.734.023,6.319,6.319,0,0,1,0,.7" transform="translate(-11.328 -14.345)" fill="#608d33"/>
    <path id="Tracé_745" data-name="Tracé 745" d="M54.256,39a6.111,6.111,0,0,1-.067.852.774.774,0,0,1-.845.649.745.745,0,0,1-.815-.679,9.637,9.637,0,0,1-.006-1.687.747.747,0,0,1,.794-.7.784.784,0,0,1,.88.679,6.87,6.87,0,0,1,.059.891" transform="translate(-20.116 -14.346)" fill="#608d33"/>
    <path id="Tracé_746" data-name="Tracé 746" d="M56.2,70.814c-.683,0-1.367.014-2.05,0A2.808,2.808,0,0,1,51.3,68.244a12.646,12.646,0,0,1,0-2.454,2.694,2.694,0,0,1,1.724-2.322.539.539,0,0,0,.4-.607,6.949,6.949,0,0,1,.014-.994,2.785,2.785,0,0,1,5.559.09.313.313,0,0,1,0,.059,1.453,1.453,0,0,0,.924,1.778,2.3,2.3,0,0,1,1.213,2.083,15.815,15.815,0,0,1,0,2.281,2.814,2.814,0,0,1-2.886,2.655c-.683.015-1.366,0-2.05,0m-.028-1.758c.682,0,1.365.014,2.046,0a1.089,1.089,0,0,0,1.177-1.11,16.122,16.122,0,0,0,0-1.811A1.085,1.085,0,0,0,58.241,65q-2.016-.033-4.034,0a1.1,1.1,0,0,0-1.184,1.169c-.023.564-.022,1.131,0,1.695a1.117,1.117,0,0,0,1.217,1.2c.643.015,1.287,0,1.929,0m1.092-5.868c-.107-.689.273-1.48-.485-1.926a1.31,1.31,0,0,0-1.116-.009c-.762.437-.405,1.229-.5,1.935Z" transform="translate(-19.637 -22.724)" fill="#608d33"/>
  </g>
</svg>
