<svg id="Groupe_466" data-name="Groupe 466" xmlns="http://www.w3.org/2000/svg" xmlns:xlink="http://www.w3.org/1999/xlink" width="9.93" height="18.369" viewBox="0 0 9.93 18.369">
  <defs>
    <clipPath id="clip-path">
      <rect id="Rectangle_1500" data-name="Rectangle 1500" width="9.93" height="18.369" fill="#fff"/>
    </clipPath>
  </defs>
  <g id="Groupe_436" data-name="Groupe 436" clip-path="url(#clip-path)">
    <path id="Tracé_752" data-name="Tracé 752" d="M9.628,0a.461.461,0,0,1,.3.49c-.007.861,0,1.722,0,2.583,0,.358-.128.479-.489.482-.61.006-1.22,0-1.828.028A.864.864,0,0,0,6.8,4.02a1.255,1.255,0,0,0-.138.512c-.016.681-.006,1.362-.006,2.071H9.318c.369,0,.5.127.5.5q0,1.4,0,2.8c0,.347-.129.474-.477.475H6.645V10.6q0,3.614,0,7.228c0,.425-.119.543-.543.543H3.269c-.373,0-.5-.123-.5-.493q0-3.632,0-7.264v-.24h-.2q-1.049,0-2.1,0C.134,10.371,0,10.241,0,9.9Q0,8.488,0,7.071C0,6.739.14,6.6.472,6.6c.694,0,1.387,0,2.081,0h.218c0-.077,0-.141,0-.2,0-.741-.018-1.484.014-2.224A4.389,4.389,0,0,1,3.861,1.353,3.962,3.962,0,0,1,6.09.111C6.3.067,6.511.037,6.722,0Z" transform="translate(0)" fill="#fff"/>
  </g>
</svg>
