<svg id="Groupe_461" data-name="Groupe 461" xmlns="http://www.w3.org/2000/svg" xmlns:xlink="http://www.w3.org/1999/xlink" width="59.265" height="59.266" viewBox="0 0 59.265 59.266">
  <defs>
    <clipPath id="clip-path">
      <rect id="Rectangle_1492" data-name="Rectangle 1492" width="59.265" height="59.266" fill="#608d33" stroke="#608d33" stroke-width="0.3"/>
    </clipPath>
  </defs>
  <g id="Groupe_422" data-name="Groupe 422" clip-path="url(#clip-path)">
    <path id="Tracé_735" data-name="Tracé 735" d="M0,43.677c.225-.973.377-1.97.688-2.914a12.174,12.174,0,0,1,4.936-6.441.614.614,0,0,0,.305-.746A16.17,16.17,0,0,1,8.316,21.524a1.494,1.494,0,0,1,.834-.609A.819.819,0,0,1,10,21.979a1.956,1.956,0,0,1-.237.459,14.672,14.672,0,0,0-2,11.47c.195.887.121,1.063-.635,1.512A10.869,10.869,0,0,0,10.11,55.394a31.478,31.478,0,0,0,3.307.426c0-1.454,0-2.741,0-4.029a2.623,2.623,0,0,1,2.895-2.9c1.582,0,3.164.025,4.746-.008A3.629,3.629,0,0,1,24.567,50.8a2.666,2.666,0,0,0,2.764,1.455c1.5-.07,3.019.041,4.5-.141a4.5,4.5,0,0,0,3.9-3.261,4.626,4.626,0,0,0-1.2-5,40.594,40.594,0,0,0-2.992-2.809c0,.6,0,1.206,0,1.809a5.473,5.473,0,0,1-.032.808.779.779,0,0,1-.836.717.766.766,0,0,1-.833-.717,10.163,10.163,0,0,1-.034-1.213c0-1.158-.009-2.315,0-3.472.008-.788.307-1.078,1.093-1.081q2.17-.007,4.34,0c.668,0,1.074.343,1.068.875s-.412.854-1.086.858a15.315,15.315,0,0,0-2.37.133c.532.515,1.068,1.028,1.6,1.547.468.46.934.921,1.39,1.392a6.6,6.6,0,0,1,.224,9.029c-.123.142-.25.279-.434.484.257.013.439.031.62.031,2.257,0,4.514,0,6.771,0a2.6,2.6,0,0,1,2.823,2.8q.006,7.726,0,15.453a2.6,2.6,0,0,1-2.816,2.81q-13.4,0-26.8,0a2.6,2.6,0,0,1-2.816-2.81q-.007-4.254,0-8.508a2.6,2.6,0,0,1,2.823-2.8c1.621,0,3.241-.017,4.861.006a2.042,2.042,0,0,0,1.853-.967.461.461,0,0,0,.034-.047c.978-2.017,2.671-2.522,4.784-2.49,5.015.077,10.031.023,15.047.027.4,0,.8.037,1.281.061a10.261,10.261,0,0,0-.007-1.036.806.806,0,0,0-.756-.75,3.9,3.9,0,0,0-.578-.013c-5.17,0-10.34-.023-15.51.012a4.143,4.143,0,0,1-4.079-2.186,2.209,2.209,0,0,0-2.2-1.195c-1.561.043-3.125.009-4.688.013-.855,0-1.13.282-1.131,1.152,0,1.5,0,3.009,0,4.514,0,.861-.294,1.132-1.135,1.166A13.427,13.427,0,0,1,6.238,55.7a12.5,12.5,0,0,1-6.13-9.267c-.022-.15-.072-.295-.108-.442V43.677m29.6,27.9H42.846c1.022,0,1.265-.24,1.265-1.252q0-5.786,0-11.571c0-1.067-.227-1.3-1.276-1.3-5.11,0-10.221.03-15.331-.02a2.974,2.974,0,0,0-3.031,1.611,3.6,3.6,0,0,1-3.52,1.891c-1.541-.044-3.085-.011-4.628-.009-.9,0-1.17.269-1.171,1.17q0,4.107,0,8.215c0,1.018.243,1.263,1.253,1.263H29.6" transform="translate(0 -14.045)" fill="#608d33" stroke="#608d33" stroke-width="0.3"/>
    <path id="Tracé_736" data-name="Tracé 736" d="M45.553,0C46.6.218,47.679.355,48.7.668A16.235,16.235,0,0,1,59.9,11.725c.053.162.108.324.172.517a10.648,10.648,0,0,1,4.911.91A11.074,11.074,0,0,1,71.7,22.186c.052.376.192.464.532.5a10.392,10.392,0,0,1,.888,20.471,15.133,15.133,0,0,1-2.237.237c-.811.041-1.245-.3-1.234-.874.01-.557.42-.838,1.205-.855a8.438,8.438,0,0,0,7.667-4.543,8.661,8.661,0,0,0-7.256-12.8c-.99-.049-1.158-.213-1.223-1.194a9.454,9.454,0,0,0-8.148-9.065,12.276,12.276,0,0,0-2.134-.063c-.885.014-1.068-.115-1.3-.959-1.632-5.932-5.442-9.678-11.438-10.99A14.1,14.1,0,0,0,34.635,5.22c-.1.085-.2.181-.306.265a.866.866,0,0,1-1.287-.029.854.854,0,0,1,.15-1.274,15.813,15.813,0,0,1,6.646-3.6C40.8.333,41.795.192,42.775,0Z" transform="translate(-22.055)" fill="#608d33" stroke="#608d33" stroke-width="0.3"/>
    <path id="Tracé_737" data-name="Tracé 737" d="M59.568,33.558a7.808,7.808,0,1,1-7.81-7.8,7.821,7.821,0,0,1,7.81,7.8m-1.739,0a6.069,6.069,0,1,0-6.054,6.09,6.079,6.079,0,0,0,6.054-6.09" transform="translate(-29.536 -17.313)" fill="#608d33" stroke="#608d33" stroke-width="0.3"/>
    <path id="Tracé_738" data-name="Tracé 738" d="M59.757,41.571c0,.86.008,1.63,0,2.4-.01.68-.339,1.071-.871,1.068s-.852-.392-.861-1.077c-.01-.77,0-1.539,0-2.391-.858,0-1.68.011-2.5,0a.857.857,0,0,1-.926-1.083.839.839,0,0,1,.906-.648c.807,0,1.614,0,2.52,0,0-.66,0-1.284,0-1.909,0-.25-.009-.5.017-.75a.851.851,0,0,1,1.7.007c.037.672.017,1.348.021,2.022,0,.189,0,.377,0,.63.822,0,1.588,0,2.353,0,.72,0,1.115.323,1.1.885-.01.538-.4.846-1.081.85-.767,0-1.534,0-2.376,0" transform="translate(-36.665 -24.439)" fill="#608d33" stroke="#608d33" stroke-width="0.3"/>
  </g>
</svg>
