<svg xmlns="http://www.w3.org/2000/svg" width="20.742" height="14.839" viewBox="0 0 20.742 14.839">
  <path id="Tracé_689" data-name="Tracé 689" d="M7.415,11.333A2.754,2.754,0,0,1,7.652,11Q12.871,5.771,18.094.547a1.518,1.518,0,0,1,1.513-.5,1.476,1.476,0,0,1,.806,2.365,3.358,3.358,0,0,1-.258.274L8.6,14.239a1.516,1.516,0,0,1-2.415,0Q3.332,11.383.475,8.525A1.475,1.475,0,0,1,1.113,6a1.467,1.467,0,0,1,1.476.444q2.28,2.289,4.565,4.57c.074.074.134.161.26.315" transform="translate(0 0)" fill="#608d33"/>
</svg>
